# xmcd
#
# Track frame offsets:
#	182
#	11010
#	23112
#	33257
#	45452
#	58690
#	71120
#	82117
#	92800
#	104585
#	117295
#	127752
#	137405
#	148262
#	161817
#	174025
#	184755
#	195120
#	205240
#	215530
#	227072
#	239520
#
# Disc length: 3369 seconds
#
# Revision: 10
# Processed by: cddbd v1.5.2PL0 Copyright (c) Steve Scherf et al.
# Submitted via: audiograbber 1.83.01
#
DISCID=310d2716
DTITLE=Various Artist - Time-Life - Rhythm and Blues - 1957
DYEAR=1991
DGENRE=Oldies
TTITLE0=Thurston Harris - Little Bitty Pretty One
TTITLE1=Coasters - Searchin'
TTITLE2=Bobbettes - Mr. Lee
TTITLE3=Dell-Vikings - Come Go With Me
TTITLE4=Mickey and Sylvia - Love Is Strange
TTITLE5=Five Satins - To The Aisle
TTITLE6=Larry Williams - Short Fat Fannie
TTITLE7=Clarence 'Frogman' Henry - Ain't Got No Home
TTITLE8=Five Royales - Think
TTITLE9=Lloyd Price - Just Because
TTITLE10=Tune Weavers - Happy Happy Birthday Baby
TTITLE11=Fats Domino - I'm Walkin'
TTITLE12=Little Richard - Lucille
TTITLE13=Bobby Blue Bland - Farther Up The Road
TTITLE14=Jimmy Reed - Honest I Do
TTITLE15=Gladiolas - Little Darlin'
TTITLE16=Johnnie and Joe - Over The Mountain Across The Sea
TTITLE17=LaVern Baker - Jim Dandy
TTITLE18=Ernie Freeman - Raunchy
TTITLE19=Chuck Willis - C.C. Rider
TTITLE20=Ivory Joe Hunter - Since I Met You Baby
TTITLE21=Platters - I'm Sorry
EXTD=Time-Life Music RHD-08 OPCD-2640
EXTT0=Thurston Harris
EXTT1=The Coasters
EXTT2=The Bobbettes
EXTT3=The Dell-Vikings
EXTT4=Mickey and Sylvia
EXTT5=The Five Satins
EXTT6=Larry Williams
EXTT7=Clarence Frogman Henry
EXTT8=The 5 Royales
EXTT9=Lloyd Price
EXTT10=The Tune Weavers
EXTT11=Fats Domino
EXTT12=Little Richard
EXTT13=Bobby Blue Bland
EXTT14=Jimmy Reed
EXTT15=The Gladiolas
EXTT16=Johnnie and Joe
EXTT17=LaVern Baker
EXTT18=Ernie Freeman
EXTT19=Chuck Willis
EXTT20=Ivory Joe Hunter
EXTT21=The Platters
PLAYORDER=
